<?xml version="1.0" standalone="no"?>
<!DOCTYPE svg PUBLIC "-//W3C//DTD SVG 20010904//EN"
 "http://www.w3.org/TR/2001/REC-SVG-20010904/DTD/svg10.dtd">
<svg version="1.0" xmlns="http://www.w3.org/2000/svg"
 width="400.000000pt" height="400.000000pt" viewBox="0 0 400.000000 400.000000"
 preserveAspectRatio="xMidYMid meet">
<metadata>
Created by potrace 1.14, written by Peter Selinger 2001-2017
</metadata>
<g transform="translate(0.000000,400.000000) scale(0.100000,-0.100000)"
fill="#000000" stroke="none">
<path d="M0 2000 l0 -2000 2000 0 2000 0 0 2000 0 2000 -2000 0 -2000 0 0
-2000z m1193 33 c400 -401 727 -734 727 -740 0 -29 -21 -63 -47 -77 -24 -12
-33 -12 -58 -1 -33 14 -1485 1464 -1485 1482 0 55 65 101 110 78 14 -8 352
-341 753 -742z m-115 743 c15 -8 164 -152 332 -320 168 -168 308 -306 311
-306 4 0 14 12 24 26 l17 26 -76 78 c-60 62 -76 84 -76 108 0 41 28 73 66 74
37 1 69 -20 143 -96 l54 -55 29 21 30 21 -161 161 c-167 168 -178 186 -151
236 13 25 61 40 86 28 10 -6 96 -87 191 -181 l172 -171 73 17 c40 10 104 18
142 19 61 1 71 -1 87 -21 11 -13 19 -36 19 -52 0 -46 -28 -65 -106 -74 -38 -4
-73 -9 -78 -12 -9 -6 253 -273 269 -273 5 0 108 98 228 218 l217 217 73 -3
c124 -4 282 -59 375 -130 l33 -25 77 76 c76 75 86 81 129 78 30 -1 66 -54 57
-83 -4 -13 -40 -58 -81 -100 l-75 -76 30 -44 c64 -94 103 -199 122 -331 10
-68 9 -81 -5 -103 -22 -33 -57 -46 -93 -33 -36 13 -52 46 -52 110 0 59 -40
186 -78 246 -15 24 -29 43 -32 43 -3 0 -91 -86 -195 -191 -105 -105 -202 -197
-217 -205 -53 -28 -108 8 -108 71 0 25 29 58 205 234 149 148 202 207 193 213
-83 56 -149 83 -237 97 l-56 9 -197 -196 c-109 -108 -198 -201 -198 -206 0 -6
135 -146 300 -311 168 -169 300 -309 300 -319 0 -48 -56 -90 -100 -74 -14 5
-158 141 -320 304 l-295 294 -55 -56 c-64 -65 -89 -78 -127 -63 -16 5 -117 98
-225 207 -109 108 -199 194 -201 192 -2 -3 -11 -16 -20 -30 l-17 -25 360 -360
c301 -301 360 -365 360 -388 0 -40 -15 -62 -50 -77 -25 -10 -34 -10 -54 3 -13
9 -170 160 -348 335 -203 201 -326 316 -330 308 -4 -6 -8 -32 -8 -58 0 -62
-16 -95 -52 -107 -31 -11 -53 -6 -80 17 -24 20 -23 123 2 217 l18 70 -339 341
c-262 263 -339 346 -339 365 0 39 36 79 78 88 2 1 15 -5 30 -13z"/>
<path d="M2008 2222 c-16 -9 -27 -19 -27 -22 1 -3 78 -79 170 -169 l169 -165
25 24 26 24 -163 163 c-90 90 -165 163 -168 163 -3 0 -17 -8 -32 -18z"/>
</g>
</svg>
