<?xml version="1.0" standalone="no"?>
<!DOCTYPE svg PUBLIC "-//W3C//DTD SVG 20010904//EN"
 "http://www.w3.org/TR/2001/REC-SVG-20010904/DTD/svg10.dtd">
<svg version="1.0" xmlns="http://www.w3.org/2000/svg"
 width="256.000000pt" height="256.000000pt" viewBox="0 0 256.000000 256.000000"
 preserveAspectRatio="xMidYMid meet">
<metadata>
Created by potrace 1.14, written by Peter Selinger 2001-2017
</metadata>
<g transform="translate(0.000000,256.000000) scale(0.100000,-0.100000)"
fill="#000000" stroke="none">
<path d="M1070 2225 c0 -23 -3 -25 -50 -25 -47 0 -50 -2 -50 -25 0 -20 -5 -25
-25 -25 -20 0 -25 -5 -25 -25 0 -20 -5 -25 -25 -25 -20 0 -25 -5 -25 -25 0
-20 -5 -25 -25 -25 -21 0 -25 -5 -25 -30 0 -25 -4 -30 -25 -30 -24 0 -25 -3
-25 -54 0 -51 -1 -53 -25 -48 -22 4 -25 1 -25 -22 0 -22 -4 -26 -30 -26 -25 0
-30 -4 -30 -24 0 -18 -6 -25 -22 -28 -15 -2 -24 -11 -26 -25 -3 -17 -10 -23
-28 -23 -19 0 -24 -5 -24 -25 0 -20 5 -25 25 -25 20 0 25 -5 25 -25 0 -21 5
-25 28 -25 l27 0 -3 -80 c-3 -77 -4 -80 -28 -80 l-25 0 3 -122 c3 -119 4 -123
26 -126 17 -3 22 -10 22 -33 0 -26 3 -29 30 -29 25 0 30 -4 30 -25 0 -20 5
-25 25 -25 24 0 25 -2 25 -75 0 -73 1 -75 25 -75 23 0 25 -3 25 -50 0 -47 2
-50 25 -50 20 0 25 -5 25 -25 0 -20 5 -25 25 -25 20 0 25 -5 25 -25 0 -20 5
-25 25 -25 21 0 25 -5 25 -30 0 -29 -1 -30 -50 -30 -47 0 -50 -2 -50 -25 0
-23 -3 -25 -50 -25 -47 0 -50 -2 -50 -25 0 -24 -3 -25 -55 -25 -52 0 -55 -1
-55 -25 0 -20 -5 -25 -25 -25 -20 0 -25 -5 -25 -25 0 -20 -5 -25 -25 -25 -23
0 -25 -3 -25 -50 0 -47 -2 -50 -25 -50 -26 0 -26 0 -23 -77 3 -72 5 -78 26
-81 21 -3 22 -1 22 77 0 75 1 80 23 83 19 3 22 10 25 51 3 42 5 47 28 47 19 0
24 5 24 25 0 24 3 25 55 25 52 0 55 1 55 25 0 23 3 25 50 25 47 0 50 2 50 25
0 23 3 25 50 25 47 0 50 -2 50 -26 0 -21 4 -25 23 -22 19 3 22 10 25 50 3 39
6 47 25 50 16 2 23 11 25 31 3 23 8 27 33 27 24 0 29 4 29 25 0 20 5 25 25 25
20 0 25 -5 25 -25 0 -21 5 -25 28 -25 26 0 28 -3 24 -30 -3 -24 -9 -30 -28
-30 -19 0 -24 -5 -24 -25 0 -20 5 -25 24 -25 18 0 25 -6 28 -23 2 -14 11 -23
26 -25 16 -3 22 -10 22 -28 0 -23 -2 -24 -75 -24 -73 0 -75 1 -75 25 0 24 -3
25 -55 25 -52 0 -55 -1 -55 -25 0 -24 3 -25 54 -25 49 0 55 -2 58 -22 3 -21 9
-23 76 -26 l72 -3 0 -130 c0 -129 0 -130 23 -127 21 3 22 7 25 131 l3 127 74
0 c73 0 75 1 75 25 0 24 3 25 56 25 52 0 55 1 52 22 -3 20 -10 23 -55 26 -51
3 -53 2 -53 -22 0 -26 -1 -26 -74 -26 -71 0 -74 1 -78 25 -5 22 -2 25 23 25
24 0 29 4 29 25 0 20 5 25 25 25 20 0 25 5 25 25 0 20 -5 25 -25 25 -21 0 -25
5 -25 30 0 25 4 30 25 30 20 0 25 5 25 24 0 17 7 25 25 28 22 5 25 2 25 -23 0
-26 4 -29 30 -29 27 0 30 -3 30 -30 0 -25 4 -30 25 -30 23 0 25 -3 25 -50 0
-47 2 -50 25 -50 20 0 25 5 25 25 0 23 3 25 50 25 47 0 50 -2 50 -25 0 -23 3
-25 50 -25 47 0 50 -2 50 -25 0 -23 3 -25 50 -25 47 0 50 -2 50 -25 0 -21 5
-25 30 -25 29 0 30 -1 30 -51 0 -47 2 -50 23 -47 19 3 22 9 22 48 0 39 -3 45
-22 48 -17 3 -23 10 -23 28 0 20 -5 24 -30 24 -25 0 -30 4 -30 25 0 23 -3 25
-50 25 -47 0 -50 2 -50 25 0 23 -3 25 -50 25 -47 0 -50 2 -50 25 0 23 -3 25
-50 25 -49 0 -50 1 -50 29 0 23 5 30 23 33 14 2 23 11 25 26 3 16 10 22 28 22
19 0 24 5 24 24 0 18 6 25 23 28 19 3 22 10 25 51 3 45 2 47 -22 47 -24 0 -26
-3 -26 -50 0 -47 -2 -50 -25 -50 -20 0 -25 -5 -25 -25 0 -20 -5 -25 -25 -25
-20 0 -25 -5 -25 -25 0 -20 -5 -25 -25 -25 -23 0 -25 3 -25 50 0 47 2 50 25
50 24 0 25 2 25 75 0 73 1 75 25 75 23 0 25 3 25 50 0 47 2 50 25 50 l25 0 0
180 0 180 -25 0 c-23 0 -25 3 -25 50 0 47 -2 50 -25 50 -21 0 -25 5 -25 30 0
25 -4 30 -25 30 -20 0 -25 5 -25 25 0 20 -5 25 -25 25 -20 0 -25 -5 -25 -25 0
-21 -5 -25 -30 -25 -27 0 -30 -3 -30 -30 0 -25 -4 -30 -25 -30 -23 0 -25 -3
-25 -50 0 -47 -2 -50 -25 -50 l-25 0 0 -100 0 -100 -25 0 c-23 0 -25 3 -25 50
0 47 -2 50 -25 50 -23 0 -25 3 -25 50 0 46 -2 50 -24 50 -18 0 -25 6 -28 23
-2 14 -11 23 -25 25 -17 3 -23 10 -23 28 0 19 -5 24 -25 24 -21 0 -25 5 -25
30 l0 30 -80 0 -80 0 0 -29 c0 -23 -5 -30 -22 -33 -20 -3 -23 -10 -26 -50 -3
-43 -5 -48 -28 -48 l-24 0 0 -180 0 -180 25 0 c23 0 25 -3 25 -50 0 -47 2 -50
25 -50 24 0 25 -2 25 -75 0 -73 1 -75 25 -75 23 0 25 -3 25 -50 0 -47 -2 -50
-25 -50 -20 0 -25 5 -25 25 0 20 -5 25 -25 25 -20 0 -25 5 -25 25 0 20 -5 25
-25 25 -23 0 -25 3 -25 50 0 47 -2 50 -25 50 -24 0 -25 2 -25 75 0 73 -1 75
-25 75 l-25 0 0 180 0 180 -25 0 -25 0 0 105 0 105 -55 0 c-52 0 -55 1 -55 25
0 20 5 25 25 25 20 0 25 5 25 24 0 23 4 25 53 28 45 3 52 6 55 26 3 16 10 22
28 22 19 0 24 5 24 25 0 20 5 25 25 25 20 0 25 5 25 25 0 23 3 25 50 25 46 0
50 2 50 24 0 23 5 25 48 28 43 3 47 5 50 31 3 26 6 27 58 27 51 0 54 1 54 25
0 24 -3 25 -55 25 -52 0 -55 -1 -55 -24 0 -23 -5 -25 -47 -28 -44 -3 -48 -5
-51 -30 -3 -26 -6 -28 -53 -28 -48 0 -49 1 -49 30 0 29 1 30 50 30 47 0 50 2
50 25 0 20 5 25 25 25 20 0 25 5 25 25 0 20 5 25 25 25 20 0 25 5 25 24 0 22
5 24 55 28 54 3 55 3 55 -24 l0 -28 75 0 c73 0 75 1 75 25 l0 25 105 0 105 0
0 -25 c0 -23 3 -25 50 -25 47 0 50 -2 50 -25 0 -20 5 -25 25 -25 20 0 25 -5
25 -26 0 -21 4 -25 23 -22 14 2 23 11 25 26 3 18 -1 22 -22 22 -21 0 -26 5
-26 25 0 20 -5 25 -25 25 -20 0 -25 5 -25 25 0 23 -3 25 -50 25 -47 0 -50 2
-50 25 l0 25 -235 0 -235 0 0 -25z m-200 -260 c0 -20 -5 -25 -25 -25 -20 0
-25 5 -25 25 0 20 5 25 25 25 20 0 25 -5 25 -25z m720 -355 c0 -25 4 -30 25
-30 23 0 25 -3 25 -50 0 -47 2 -50 25 -50 20 0 25 -5 25 -25 0 -20 -5 -25 -25
-25 -20 0 -25 5 -25 26 0 24 -2 25 -47 22 -41 -3 -48 -6 -51 -25 -3 -21 -9
-23 -58 -23 -51 0 -54 1 -54 25 0 20 5 25 25 25 23 0 25 3 25 50 0 49 1 50 30
50 27 0 30 3 30 30 0 25 4 30 25 30 21 0 25 -5 25 -30z m-460 -55 c0 -20 5
-25 25 -25 20 0 25 -5 25 -25 0 -20 5 -25 25 -25 23 0 25 -3 25 -50 0 -47 2
-50 25 -50 l25 0 0 -105 0 -105 25 0 c21 0 25 5 25 30 0 25 4 30 25 30 20 0
25 5 25 25 0 20 5 25 25 25 23 0 25 3 25 49 0 44 2 49 25 53 24 5 25 3 25 -48
0 -53 0 -54 30 -54 25 0 30 -4 30 -25 0 -20 5 -25 25 -25 24 0 25 2 25 75 0
73 1 75 25 75 20 0 25 -5 25 -25 0 -20 5 -25 25 -25 l25 0 0 -105 0 -105 -25
0 c-23 0 -25 -3 -25 -50 0 -47 -2 -50 -25 -50 -20 0 -25 -5 -25 -25 0 -20 -5
-25 -26 -25 -23 0 -26 -3 -22 -25 5 -24 4 -25 -53 -25 -56 0 -59 -1 -59 -25
l0 -25 -124 0 c-122 0 -125 1 -128 23 -3 19 -10 22 -55 25 -45 3 -52 6 -55 25
-2 14 -11 23 -25 25 -17 3 -23 10 -23 28 0 19 -5 24 -25 24 -23 0 -25 3 -25
50 0 47 -2 50 -25 50 l-25 0 0 105 0 105 25 0 c20 0 25 5 25 25 0 20 5 25 25
25 24 0 25 -2 25 -76 0 -72 1 -75 23 -72 14 2 23 11 25 26 3 17 10 22 33 22
28 0 29 1 29 50 0 47 2 50 25 50 20 0 25 5 25 25 0 24 -3 25 -55 25 -52 0 -55
1 -55 25 0 23 -3 25 -50 25 -47 0 -50 -2 -50 -25 0 -20 -5 -25 -25 -25 -20 0
-25 5 -25 25 0 20 5 25 25 25 23 0 25 3 25 50 l0 50 80 0 c79 0 80 0 80 -25z
m-410 -200 l0 -125 -30 0 -30 0 0 125 0 125 30 0 30 0 0 -125z m560 -670 c0
-20 -5 -25 -25 -25 -20 0 -25 5 -25 25 0 20 5 25 25 25 20 0 25 -5 25 -25z
m100 0 c0 -20 -5 -25 -25 -25 -20 0 -25 5 -25 25 0 20 5 25 25 25 20 0 25 -5
25 -25z"/>
<path d="M1330 1145 c0 -20 5 -25 25 -25 20 0 25 5 25 25 0 20 -5 25 -25 25
-20 0 -25 -5 -25 -25z"/>
<path d="M1130 1045 c0 -20 5 -25 25 -25 20 0 25 -5 25 -25 0 -23 3 -25 50
-25 47 0 50 2 50 25 0 23 -3 25 -50 25 -47 0 -50 2 -50 25 0 20 -5 25 -25 25
-20 0 -25 -5 -25 -25z"/>
<path d="M1437 1063 c-4 -3 -7 -15 -7 -25 0 -13 -7 -18 -25 -18 -20 0 -25 -5
-25 -25 0 -20 5 -25 25 -25 20 0 25 5 25 25 0 20 5 25 25 25 20 0 25 5 25 25
0 18 -5 25 -18 25 -10 0 -22 -3 -25 -7z"/>
<path d="M1280 2075 l0 -25 130 0 130 0 0 25 0 25 -130 0 -130 0 0 -25z"/>
<path d="M1547 2043 c-4 -3 -7 -17 -7 -30 0 -18 5 -23 25 -23 21 0 25 5 25 30
0 22 -5 30 -18 30 -10 0 -22 -3 -25 -7z"/>
<path d="M1740 2021 c0 -30 -1 -31 -50 -31 -47 0 -50 -2 -50 -25 0 -23 3 -25
50 -25 47 0 50 -2 50 -25 0 -21 5 -25 29 -25 25 0 28 -3 23 -25 -4 -22 -1 -25
22 -25 25 0 26 -3 26 -50 0 -47 -2 -50 -25 -50 -20 0 -25 -5 -25 -25 0 -20 -5
-25 -25 -25 -20 0 -25 5 -25 25 0 20 -5 25 -25 25 -20 0 -25 -5 -25 -25 0 -20
5 -25 25 -25 20 0 25 -5 25 -25 0 -20 5 -25 25 -25 20 0 25 5 25 25 0 20 5 25
25 25 20 0 25 5 25 25 0 20 5 25 25 25 l25 0 0 -130 0 -130 -25 0 -25 0 0
-180 0 -180 -25 0 c-26 0 -26 -1 -23 -72 3 -67 5 -73 26 -76 21 -3 22 0 22 72
0 75 0 76 26 76 23 0 26 3 22 25 -5 22 -2 25 23 25 26 0 29 4 29 30 0 27 3 30
30 30 l30 0 0 150 0 150 -30 0 -30 0 0 105 c0 105 0 105 -25 105 -23 0 -24 3
-27 73 -3 66 -5 72 -25 75 -20 3 -23 9 -23 53 0 45 -2 49 -24 49 -19 0 -25 6
-28 28 -2 19 -9 28 -25 30 -20 3 -23 -1 -23 -27z m50 -56 c0 -20 -5 -25 -25
-25 -20 0 -25 5 -25 25 0 20 5 25 25 25 20 0 25 -5 25 -25z m152 -610 l-3
-125 -27 0 -27 0 3 125 3 125 27 0 27 0 -3 -125z"/>
<path d="M1590 1815 c0 -20 -5 -25 -25 -25 -20 0 -25 -5 -25 -25 0 -20 5 -25
25 -25 20 0 25 5 25 25 0 20 5 25 25 25 20 0 25 5 25 25 0 20 -5 25 -25 25
-20 0 -25 -5 -25 -25z"/>
<path d="M920 1766 c0 -21 -5 -26 -25 -26 -20 0 -25 -5 -25 -25 0 -20 -5 -25
-25 -25 -20 0 -25 -5 -25 -25 0 -20 5 -25 25 -25 20 0 25 5 25 25 0 20 5 25
25 25 20 0 25 5 25 25 0 20 5 25 25 25 20 0 25 -5 25 -25 0 -20 5 -25 25 -25
20 0 25 5 25 25 0 20 -5 25 -24 25 -18 0 -25 6 -28 23 -2 14 -11 23 -25 25
-19 3 -23 -1 -23 -22z"/>
<path d="M2050 330 c0 -79 0 -80 25 -80 l25 0 0 -125 0 -125 25 0 25 0 0 125
0 125 -25 0 c-25 0 -25 1 -25 80 0 79 0 80 -25 80 -25 0 -25 -1 -25 -80z"/>
<path d="M460 125 l0 -125 25 0 25 0 0 125 0 125 -25 0 -25 0 0 -125z"/>
<path d="M1330 125 l0 -125 25 0 25 0 0 125 0 125 -25 0 -25 0 0 -125z"/>
<path d="M660 75 l0 -75 30 0 30 0 0 75 0 75 -30 0 -30 0 0 -75z"/>
<path d="M1890 75 c0 -73 1 -75 25 -75 24 0 25 2 25 75 0 73 -1 75 -25 75 -24
0 -25 -2 -25 -75z"/>
</g>
</svg>
