<svg xmlns="http://www.w3.org/2000/svg" baseProfile="full" version="1.1" width="1245px" height="510px" style="fill: none; width: 1245px; height: 510px;"><path d="M300,120 L300,120 L360,180 L360,180 L420,120 M300,90 L300,90 L435,225 M240,90 L240,90 L375,225 M315,225 L315,225 L180,90 M360,120 A60,60 0 0,0 300,180 M420,180 L420,180 L480,120 M480,180 A60,60 0 0,0 420,120 " style="stroke-width: 15px; stroke-linecap: round; stroke-linejoin: round; stroke: rgb(255, 255, 255); fill: none;"/><path d="M240,90 L240,90 L375,225 " style="stroke-width: 15px; stroke-linecap: round; stroke-linejoin: round; stroke: rgb(181, 43, 101); fill: none;"/><path d="" style="stroke-width: 15px; stroke-linecap: round; stroke-linejoin: round; stroke: rgb(0, 0, 0); fill: none;"/></svg>